<?xml version="1.0"?>
<svg width="512" height="512" xmlns="http://www.w3.org/2000/svg" xmlns:svg="http://www.w3.org/2000/svg" enable-background="new 0 0 512 512" version="1.1" xml:space="preserve">

 <g class="layer">
  <title>Layer 1</title>
  <path d="m1,476c0,-145.69 0,-291.38 0.28,-437.2c0.67,-0.45 1.27,-0.7 1.4,-1.1c5.36,-17.69 16.76,-29.36 34.47,-34.83c0.44,-0.14 0.57,-1.23 0.85,-1.87c145.69,0 291.38,0 437.2,0.28c0.45,0.67 0.7,1.27 1.1,1.39c17.69,5.37 29.41,16.73 34.83,34.5c0.14,0.42 1.23,0.56 1.87,0.83c0,145.69 0,291.38 -0.28,437.2c-0.67,0.45 -1.27,0.7 -1.39,1.1c-5.36,17.7 -16.72,29.41 -34.49,34.83c-0.43,0.14 -0.57,1.23 -0.84,1.87c-145.69,0 -291.38,0 -437.2,-0.28c-0.45,-0.67 -0.7,-1.27 -1.1,-1.39c-17.69,-5.37 -29.41,-16.72 -34.83,-34.49c-0.14,-0.43 -1.23,-0.57 -1.87,-0.84m254.41,-326.12c16.6,-0.74 33.21,-1.46 49.81,-2.24c3.71,-0.18 4.65,1.54 4.87,5.06c0.81,12.97 1.93,25.91 3.15,38.84c0.14,1.49 1.4,3.91 2.48,4.12c11.36,2.18 22.8,3.13 34.09,-0.36c1.31,-0.41 2.92,-2.27 3.08,-3.62c2.16,-17.68 4.12,-35.39 5.98,-53.11c0.2,-1.87 0.08,-4.18 -0.85,-5.71c-5,-8.26 -10.19,-16.41 -15.54,-24.45c-2.93,-4.4 -6.81,-7.31 -12.43,-8.28c-40.47,-6.94 -80.59,-5.97 -120.3,4.88c-3.09,0.85 -6.34,2.38 -8.67,4.51c-23.13,21.14 -36.91,47.69 -43.98,77.9c-0.65,2.79 -0.15,6.3 0.98,8.99c5.37,12.73 13.48,23.64 23.07,33.56c19.58,20.26 42.93,35.78 65.25,52.65c16.58,12.54 32.8,25.62 48.55,39.19c8.27,7.13 14.46,16.35 19.52,27.17c-37.37,16.16 -75.7,19.23 -115.14,15.14c-0.18,-2.16 -0.29,-3.3 -0.37,-4.46c-1.11,-16.11 -2.29,-32.23 -3.26,-48.35c-0.22,-3.61 -1.45,-5.8 -5.23,-5.64c-9.92,0.4 -19.84,0.87 -29.76,1.44c-3.93,0.22 -5.46,2.34 -5.79,6.46c-1.15,14.27 -2.6,28.53 -4.29,42.75c-2.39,20.08 -2.13,19.76 10.37,35.76c9.61,12.29 21.27,19.4 36.82,22.21c32.68,5.9 65.25,5.87 97.96,1.29c2.87,-0.4 5.78,-1.62 8.31,-3.07c11.82,-6.79 21.9,-15.76 30.83,-25.97c14.19,-16.23 25.77,-33.98 30.1,-55.55c0.48,-2.39 0.12,-5.32 -0.86,-7.56c-10.03,-22.88 -25.33,-42.06 -44.46,-57.67c-20.1,-16.4 -41.61,-31.07 -62.26,-46.81c-12.16,-9.28 -24.17,-18.81 -35.66,-28.9c-7.55,-6.63 -12.76,-15.24 -15.81,-25.41c15.31,-8.27 31.73,-12.14 49.44,-14.76z" fill="#55AAFF" id="svg_1" opacity="1"/>
  <path d="m254.97,149.93c-17.27,2.57 -33.69,6.44 -49,14.71c3.05,10.17 8.26,18.78 15.81,25.41c11.49,10.09 23.5,19.62 35.66,28.9c20.65,15.74 42.16,30.41 62.26,46.81c19.13,15.61 34.43,34.79 44.46,57.67c0.98,2.24 1.34,5.17 0.86,7.56c-4.33,21.57 -15.91,39.32 -30.1,55.55c-8.93,10.21 -19.01,19.18 -30.83,25.97c-2.53,1.45 -5.44,2.67 -8.31,3.07c-32.71,4.58 -65.28,4.61 -97.96,-1.29c-15.55,-2.81 -27.21,-9.92 -36.82,-22.21c-12.5,-16 -12.76,-15.68 -10.37,-35.76c1.69,-14.22 3.14,-28.48 4.29,-42.75c0.33,-4.12 1.86,-6.24 5.79,-6.46c9.92,-0.57 19.84,-1.04 29.76,-1.44c3.78,-0.16 5.01,2.03 5.23,5.64c0.97,16.12 2.15,32.24 3.26,48.35c0.08,1.16 0.19,2.3 0.37,4.46c39.44,4.09 77.77,1.02 115.14,-15.14c-5.06,-10.82 -11.25,-20.04 -19.52,-27.17c-15.75,-13.57 -31.97,-26.65 -48.55,-39.19c-22.32,-16.87 -45.67,-32.39 -65.25,-52.65c-9.59,-9.92 -17.7,-20.83 -23.07,-33.56c-1.13,-2.69 -1.63,-6.2 -0.98,-8.99c7.07,-30.21 20.85,-56.76 43.98,-77.9c2.33,-2.13 5.58,-3.66 8.67,-4.51c39.71,-10.85 79.83,-11.82 120.3,-4.88c5.62,0.97 9.5,3.88 12.43,8.28c5.35,8.04 10.54,16.19 15.54,24.45c0.93,1.53 1.05,3.84 0.85,5.71c-1.86,17.72 -3.82,35.43 -5.98,53.11c-0.16,1.35 -1.77,3.21 -3.08,3.62c-11.29,3.49 -22.73,2.54 -34.09,0.36c-1.08,-0.21 -2.34,-2.63 -2.48,-4.12c-1.22,-12.93 -2.34,-25.87 -3.15,-38.84c-0.22,-3.52 -1.16,-5.24 -4.87,-5.06c-16.6,0.78 -33.21,1.5 -50.25,2.29z" fill="#FEFFFF" id="svg_6" opacity="1"/>
 </g>
</svg>